<?xml version="1.0" encoding="utf-8"?>
<!-- Generator: Adobe Illustrator 19.0.0, SVG Export Plug-In . SVG Version: 6.00 Build 0)  -->
<svg version="1.1" id="Capa_1" xmlns="http://www.w3.org/2000/svg" xmlns:xlink="http://www.w3.org/1999/xlink" x="0px" y="0px"
	 viewBox="0 0 60 20" style="enable-background:new 0 0 60 20;" xml:space="preserve">
<style type="text/css">
	.st0{fill:#FFFFFF;}
</style>
<path id="XMLID_55_" class="st0" d="M16.9,12.8c-0.2,0.2-0.4,0.3-0.5,0.4c-0.5,0.2-0.9,0.3-1.3,0.3h-4.5V5.2h4.4c0.2,0,0.4,0,0.6,0
	c0.4,0.1,1,0.3,1.3,0.6c0.1,0.1,0.2,0.2,0.3,0.5c0.1,0.3,0.2,0.6,0.2,0.9c0,0.3-0.1,1.1-0.7,1.6C16.5,9,16.4,9,16.2,9.2l0.3,0.1
	c0.2,0.1,0.4,0.2,0.6,0.4c0.5,0.5,0.5,1.1,0.5,1.4C17.5,11.4,17.5,12.3,16.9,12.8z M15,10.5c-0.2-0.4-0.6-0.4-0.7-0.4h-1.4v1.6h1.5
	c0.3,0,0.5-0.1,0.7-0.3c0.1-0.2,0.1-0.4,0.1-0.5C15.1,10.8,15.1,10.6,15,10.5z M14.8,7.2c-0.2-0.3-0.5-0.3-0.6-0.3h-1.3v1.4h1.3
	c0.3,0,0.5,0,0.7-0.3c0.1-0.1,0.1-0.3,0.1-0.4C14.9,7.4,14.9,7.3,14.8,7.2z"/>
<path id="XMLID_52_" class="st0" d="M20.1,10.9c0,0,0,0.3,0.1,0.5c0.1,0.2,0.3,0.7,0.9,0.7c0.3,0,0.5-0.1,0.6-0.2
	c0.2-0.2,0.3-0.5,0.4-0.6l1.8,0.8c-0.1,0.1-0.1,0.2-0.3,0.4c-0.4,0.5-0.8,0.8-1,0.9c-0.3,0.1-0.8,0.4-1.6,0.4
	c-0.4,0-0.9-0.1-1.3-0.3c-1.1-0.5-1.7-1.7-1.7-3.1c0-1.3,0.5-2,0.8-2.4c0.8-0.8,1.9-0.9,2.2-0.9c0.4,0,1.5,0.1,2.3,1
	c0.3,0.3,0.5,0.7,0.6,1.1c0.1,0.5,0.2,1.1,0.2,1.6H20.1z M21.6,9.2c-0.1-0.5-0.5-0.6-0.7-0.6c-0.2,0-0.3,0.1-0.3,0.1
	c-0.4,0.2-0.4,0.7-0.5,0.8h1.6C21.7,9.5,21.7,9.4,21.6,9.2z"/>
<path id="XMLID_49_" class="st0" d="M26.4,10.9c0,0,0,0.3,0.1,0.5c0.1,0.2,0.3,0.7,0.9,0.7c0.3,0,0.5-0.1,0.6-0.2
	c0.2-0.2,0.3-0.5,0.4-0.6l1.8,0.8c-0.1,0.1-0.1,0.2-0.3,0.4c-0.4,0.5-0.8,0.8-1,0.9c-0.3,0.1-0.8,0.4-1.6,0.4
	c-0.4,0-0.9-0.1-1.3-0.3c-1.1-0.5-1.7-1.7-1.7-3.1c0-1.3,0.5-2,0.8-2.4c0.8-0.8,1.9-0.9,2.2-0.9c0.4,0,1.5,0.1,2.3,1
	c0.3,0.3,0.5,0.7,0.6,1.1c0.1,0.5,0.2,1.1,0.2,1.6H26.4z M27.9,9.2c-0.1-0.5-0.5-0.6-0.7-0.6c-0.2,0-0.3,0.1-0.3,0.1
	c-0.4,0.2-0.4,0.7-0.5,0.8H28C28,9.5,28,9.4,27.9,9.2z"/>
<g id="XMLID_33_">
	<path id="XMLID_47_" class="st0" d="M35.2,13.5c-0.2,0.1-0.3,0.1-0.5,0.2c-0.2,0-0.4,0.1-0.7,0.1c-0.6,0-1-0.1-1.4-0.3
		c-0.4-0.2-0.7-0.5-1-0.8c-0.3-0.4-0.4-0.8-0.5-1.3c-0.1-0.5-0.2-1-0.2-1.6c0-0.6,0.1-1.1,0.2-1.6c0.1-0.5,0.3-0.9,0.6-1.3
		c0.3-0.4,0.6-0.6,1-0.8c0.4-0.2,0.9-0.3,1.4-0.3c0.4,0,0.8,0,1.2,0.1c0.3,0.1,0.6,0.2,0.9,0.3l-0.2,1c-0.3-0.1-0.6-0.2-0.9-0.3
		c-0.3-0.1-0.6-0.1-0.9-0.1c-0.3,0-0.6,0-0.8,0.1c-0.3,0.1-0.5,0.2-0.6,0.4c-0.2,0.2-0.3,0.5-0.4,0.8c-0.1,0.4-0.1,0.8-0.1,1.4v0.3
		c0,0.6,0,1.1,0.1,1.5c0.1,0.4,0.2,0.7,0.4,0.9c0.2,0.2,0.4,0.4,0.6,0.5c0.2,0.1,0.5,0.1,0.8,0.1c0.3,0,0.6,0,0.8-0.1
		c0.2-0.1,0.4-0.2,0.6-0.3v-2h-1.2V9.5h2.3v4.1H36l-0.3-1L35.2,13.5z"/>
	<path id="XMLID_45_" class="st0" d="M38.1,4.9h1.1v8.7h-1.1V4.9z"/>
	<path id="XMLID_42_" class="st0" d="M43.1,13.7c-0.4,0-0.7-0.1-1.1-0.2c-0.3-0.1-0.6-0.4-0.8-0.6c-0.2-0.3-0.4-0.6-0.5-1
		c-0.1-0.4-0.2-0.9-0.2-1.4c0-0.5,0.1-1,0.2-1.4c0.1-0.4,0.3-0.7,0.5-1c0.2-0.3,0.5-0.5,0.8-0.6c0.3-0.1,0.7-0.2,1-0.2
		c0.4,0,0.7,0.1,1,0.2c0.3,0.1,0.6,0.3,0.8,0.6c0.2,0.3,0.4,0.6,0.5,1c0.1,0.4,0.2,0.9,0.2,1.4c0,0.5-0.1,1-0.2,1.4
		c-0.1,0.4-0.3,0.7-0.5,1c-0.2,0.3-0.5,0.5-0.8,0.6C43.9,13.7,43.5,13.7,43.1,13.7z M43.1,12.9c0.2,0,0.4,0,0.6-0.1
		c0.2-0.1,0.3-0.2,0.5-0.4c0.1-0.2,0.2-0.4,0.3-0.7c0.1-0.3,0.1-0.7,0.1-1.1v-0.2c0-0.4,0-0.8-0.1-1.1c-0.1-0.3-0.2-0.5-0.3-0.7
		c-0.1-0.2-0.3-0.3-0.4-0.3c-0.2-0.1-0.4-0.1-0.6-0.1c-0.2,0-0.4,0-0.6,0.1c-0.2,0.1-0.3,0.2-0.5,0.3c-0.1,0.2-0.2,0.4-0.3,0.7
		c-0.1,0.3-0.1,0.6-0.1,1.1v0.2c0,0.4,0,0.8,0.1,1.1c0.1,0.3,0.2,0.5,0.3,0.7c0.1,0.2,0.3,0.3,0.5,0.4
		C42.7,12.8,42.9,12.9,43.1,12.9z"/>
	<path id="XMLID_39_" class="st0" d="M47.5,13.6H47V4.9h1.1v3.2c0.2-0.2,0.4-0.4,0.7-0.6c0.3-0.2,0.6-0.2,1-0.2
		c0.7,0,1.2,0.3,1.6,0.8c0.4,0.5,0.6,1.3,0.6,2.4c0,1.1-0.2,2-0.6,2.5c-0.4,0.5-1,0.8-1.7,0.8c-0.2,0-0.4,0-0.6-0.1
		c-0.2-0.1-0.4-0.1-0.5-0.2l-0.6-0.8L47.5,13.6z M48.1,12.4c0.2,0.2,0.4,0.3,0.6,0.4c0.2,0.1,0.4,0.1,0.7,0.1c0.2,0,0.5,0,0.6-0.1
		c0.2-0.1,0.3-0.2,0.4-0.4c0.1-0.2,0.2-0.4,0.3-0.7c0.1-0.3,0.1-0.7,0.1-1.1v-0.3c0-0.4,0-0.8-0.1-1.1c-0.1-0.3-0.2-0.5-0.3-0.6
		c-0.1-0.1-0.3-0.3-0.4-0.3c-0.2-0.1-0.3-0.1-0.5-0.1c-0.3,0-0.6,0.1-0.8,0.2c-0.2,0.1-0.4,0.3-0.5,0.4V12.4z"/>
	<path id="XMLID_36_" class="st0" d="M56.1,9.5c0-0.2,0-0.4,0-0.6c0-0.2-0.1-0.3-0.1-0.4c-0.1-0.1-0.2-0.2-0.3-0.2
		c-0.1,0-0.3-0.1-0.5-0.1c-0.1,0-0.3,0-0.4,0c-0.1,0-0.3,0-0.4,0.1c-0.1,0-0.3,0.1-0.4,0.1c-0.1,0-0.3,0.1-0.5,0.1l-0.2-0.8
		c0.3-0.1,0.6-0.3,0.9-0.3c0.3-0.1,0.7-0.1,1.1-0.1c0.4,0,0.7,0,0.9,0.1c0.3,0.1,0.5,0.2,0.6,0.4C56.8,8.1,57,8.3,57,8.7
		c0.1,0.3,0.1,0.7,0.1,1.2v2.6c0,0.2,0,0.3,0.1,0.4c0.1,0.1,0.1,0.1,0.3,0.1h0.2l0.1,0.6c-0.1,0-0.1,0.1-0.3,0.1
		c-0.1,0-0.2,0.1-0.4,0.1c-0.1,0-0.2,0-0.3,0c-0.1,0-0.2,0-0.3-0.1l-0.3-0.8l-0.4,0.7c-0.1,0.1-0.3,0.1-0.5,0.2
		c-0.2,0-0.4,0.1-0.6,0.1c-0.2,0-0.5,0-0.7-0.1c-0.2-0.1-0.4-0.2-0.6-0.3c-0.2-0.1-0.3-0.3-0.4-0.5c-0.1-0.2-0.1-0.5-0.1-0.8
		c0-0.6,0.2-1.1,0.5-1.4c0.4-0.3,0.9-0.5,1.7-0.6l1-0.1V9.5z M56.1,10.6l-0.9,0.1c-0.2,0-0.4,0.1-0.6,0.1c-0.2,0-0.3,0.1-0.4,0.2
		c-0.1,0.1-0.2,0.2-0.2,0.3c0,0.1-0.1,0.3-0.1,0.5v0c0,0.2,0,0.3,0.1,0.5c0,0.1,0.1,0.2,0.2,0.3c0.1,0.1,0.2,0.1,0.3,0.2
		c0.1,0,0.3,0,0.5,0c0.3,0,0.6-0.1,0.7-0.2c0.2-0.1,0.3-0.2,0.4-0.4V10.6z"/>
	<path id="XMLID_34_" class="st0" d="M58.9,4.9H60v8.7h-1.1V4.9z"/>
</g>
<path id="XMLID_27_" class="st0" d="M5.5,6.8H1.9c-1,0-1.8,0.7-1.8,1.6v3.2c0,0.9,0.8,1.6,1.8,1.6h3.5c1,0,1.8-0.7,1.8-1.6V8.5
	C7.3,7.6,6.5,6.8,5.5,6.8z M2.1,13c-0.9,0-1.6-0.7-1.6-1.5V9.7c0.8,0.2,1.6,0.6,2.3,1.3c0.7,0.6,1.1,1.4,1.4,2.1H2.1z M5.3,13H5.1
	c-0.3-1-0.8-1.9-1.7-2.7C2.5,9.6,1.5,9.1,0.5,8.8V8.6c0-0.2,0.1-0.5,0.2-0.6c1.3,0,2.7,0.5,3.8,1.5c1.1,1,1.6,2.2,1.6,3.4
	C5.8,13,5.5,13,5.3,13z M6.9,11.5c0,0.2,0,0.3-0.1,0.5C6.6,10.9,6,9.8,5,8.9C4,7.9,2.8,7.4,1.5,7.2c0.2-0.1,0.4-0.1,0.5-0.1h3.2
	c0.9,0,1.6,0.7,1.6,1.5V11.5z"/>
<path id="XMLID_3_" class="st0" d="M7.2,7.6c0.5-0.1,1.2-0.1,1.6,0.2C9,8,9.2,8.3,9.2,8.6C9.1,8.8,8.8,9,8.6,8.9
	C8.1,8.8,8.3,8.3,8.1,8C7.8,7.6,7.2,7.6,7.2,7.6z"/>
<path id="XMLID_2_" class="st0" d="M6.4,6.9c0.1-0.4,0.1-1.1-0.3-1.4C6,5.3,5.6,5,5.4,5.1C5.1,5.2,4.9,5.4,5,5.7
	C5.1,6,5.6,5.9,5.9,6.1C6.4,6.3,6.4,6.9,6.4,6.9z"/>
<path id="XMLID_1_" class="st0" d="M0.5,12.5c0,0-0.6,0.8-0.5,0.9C0.1,13.5,1,13,1,13L0.5,12.5z"/>
</svg>
