<?xml version="1.0" encoding="utf-8"?>
<!-- Generator: Adobe Illustrator 19.0.0, SVG Export Plug-In . SVG Version: 6.00 Build 0)  -->
<svg version="1.1" id="Capa_1" xmlns="http://www.w3.org/2000/svg" xmlns:xlink="http://www.w3.org/1999/xlink" x="0px" y="0px"
	 viewBox="0 0 412.4 72.3" style="enable-background:new 0 0 412.4 72.3;" xml:space="preserve">
<style type="text/css">
	.st0{fill:#1D1D1B;}
	.st1{fill:#9C9B9B;}
	.st2{fill:#4981C2;}
</style>
<path class="st0" d="M116.5,60.6c-1.4,1.5-2.9,2.3-3.5,2.6c-3.2,1.6-6,1.9-9.3,1.9H72.7V7.7h30.1c1.4,0,2.9,0.1,4.3,0.3
	c3,0.5,6.6,1.9,8.8,4.5c0.4,0.6,1.3,1.7,2,3.4c0.9,1.9,1.3,4.1,1.3,6.3c0,1.9-0.5,7.3-4.6,11c-0.8,0.7-1.6,1.2-3.4,2.1l2.2,0.7
	c1.6,0.6,2.8,1.5,4,2.9c3.1,3.7,3.2,7.8,3.2,9.7C120.5,50.6,120.3,56.6,116.5,60.6z M103.5,44.1c-1.4-2.7-4.5-2.6-5.1-2.6h-9.7v11.2
	h10.1c1.8,0,3.4-0.4,4.6-2.3c0.8-1.3,0.9-2.6,0.9-3.3C104.2,46.6,104.1,45.4,103.5,44.1z M102.2,21.9c-1.2-2.2-3.7-2-4.2-2h-9.2v9.7
	h8.8c1.7,0,3.7-0.2,4.7-2.1c0.6-1,0.6-2.2,0.6-2.7C102.8,23.3,102.5,22.4,102.2,21.9z"/>
<path class="st0" d="M138.3,47.1c0,0,0,1.9,0.4,3.2c0.5,1.6,1.9,4.7,5.9,4.6c2.3,0,3.5-0.9,4.2-1.6c1.5-1.4,2.2-3.2,2.5-3.8
	l12.2,5.8c-0.4,0.7-0.8,1.5-1.8,2.8c-2.6,3.4-5.5,5.3-6.8,6c-1.8,1-5.7,2.7-11,2.7c-3.1,0-6-0.5-8.8-1.8c-7.7-3.6-11.8-12-11.8-21.2
	c0-8.7,3.5-14.1,5.7-16.4c5.3-5.8,12.7-6.2,14.8-6.2c2.5,0,10.1,0.4,15.5,7c1.8,2.2,3.2,5,4,7.8c1,3.7,1.1,7.2,1.1,11H138.3z
	 M148.8,35.9c-1-3.5-3.7-4-4.9-4c-1.1,0.1-1.9,0.4-2.3,0.6c-2.7,1.4-3.1,4.8-3.2,5.7h10.8C149.1,37.7,149.1,36.9,148.8,35.9z"/>
<path class="st1" d="M181.7,47.1c0,0,0,1.9,0.4,3.2c0.5,1.6,1.9,4.7,5.9,4.6c2.3,0,3.5-0.9,4.2-1.6c1.5-1.4,2.2-3.2,2.5-3.8
	l12.2,5.8c-0.4,0.7-0.8,1.5-1.8,2.8c-2.6,3.4-5.5,5.3-6.8,6c-1.8,1-5.7,2.7-11,2.7c-3.1,0-6-0.5-8.8-1.8c-7.7-3.6-11.8-12-11.8-21.2
	c0-8.7,3.5-14.1,5.7-16.4c5.3-5.8,12.7-6.2,14.8-6.2c2.5,0,10.1,0.4,15.5,7c1.8,2.2,3.2,5,4,7.8c1,3.7,1.1,7.2,1.1,11H181.7z
	 M192.3,35.9c-1-3.5-3.7-4-4.9-4c-1.1,0.1-1.9,0.4-2.3,0.6c-2.7,1.4-3.1,4.8-3.2,5.7h10.8C192.5,37.7,192.5,36.9,192.3,35.9z"/>
<g>
	<path class="st2" d="M242.1,65.2c-1.1,0.5-2.3,0.9-3.7,1.2c-1.3,0.3-2.9,0.5-4.6,0.5c-3.8,0-7.1-0.7-9.8-2.1
		c-2.7-1.4-4.9-3.3-6.6-5.8c-1.7-2.5-3-5.4-3.8-8.8c-0.8-3.4-1.2-7.1-1.2-11.1c0-3.9,0.4-7.5,1.3-10.8c0.9-3.3,2.2-6.2,4.1-8.7
		c1.8-2.4,4.1-4.3,6.9-5.7c2.8-1.4,6.1-2.1,10-2.1c3.1,0,5.7,0.3,8,0.9c2.3,0.6,4.3,1.3,5.9,2.1l-1.2,6.6c-2.2-0.7-4.2-1.3-6.1-1.7
		c-1.9-0.5-4.1-0.7-6.5-0.7c-2.1,0-4,0.3-5.7,0.8c-1.7,0.5-3.2,1.5-4.4,2.9c-1.2,1.4-2.2,3.3-2.8,5.8c-0.7,2.5-1,5.6-1,9.5v1.9
		c0,4,0.3,7.3,0.9,10c0.6,2.7,1.5,4.8,2.6,6.3c1.1,1.6,2.5,2.7,4.2,3.3c1.6,0.6,3.5,0.9,5.5,0.9c2.2,0,3.9-0.2,5.3-0.6
		c1.4-0.4,2.7-1.1,4-1.9V44h-8.6v-6.2h16v28.5h-2.9l-2.2-6.6L242.1,65.2z"/>
	<path class="st2" d="M261.8,5.7h7.5v59.9h-7.5V5.7z"/>
	<path class="st2" d="M296.6,66.8c-2.6,0-5-0.5-7.2-1.5c-2.2-1-4.1-2.4-5.6-4.3c-1.6-1.9-2.8-4.2-3.6-7c-0.8-2.8-1.3-5.9-1.3-9.5
		c0-3.6,0.4-6.8,1.3-9.6c0.9-2.8,2.1-5.1,3.6-7c1.6-1.9,3.4-3.3,5.6-4.2c2.2-0.9,4.6-1.4,7.2-1.4c2.6,0,5,0.5,7.1,1.4
		c2.2,0.9,4,2.4,5.6,4.2c1.6,1.9,2.8,4.2,3.6,6.9c0.9,2.7,1.3,5.9,1.3,9.5c0,3.6-0.4,6.8-1.3,9.6c-0.8,2.8-2,5.1-3.6,7.1
		c-1.6,1.9-3.4,3.4-5.6,4.3C301.7,66.3,299.3,66.8,296.6,66.8z M296.6,60.8c1.4,0,2.8-0.2,4-0.7c1.2-0.5,2.3-1.3,3.1-2.6
		c0.9-1.2,1.5-2.8,2-4.8c0.5-2,0.7-4.5,0.7-7.5v-1.4c0-3.1-0.2-5.6-0.7-7.6c-0.5-2-1.1-3.5-1.9-4.7c-0.8-1.1-1.9-1.9-3.1-2.4
		c-1.2-0.4-2.6-0.6-4.1-0.6c-1.6,0-3,0.2-4.2,0.6c-1.2,0.4-2.3,1.2-3.1,2.4c-0.8,1.1-1.5,2.7-1.9,4.6c-0.5,1.9-0.7,4.4-0.7,7.3v1.4
		c0,3.1,0.2,5.6,0.7,7.7c0.5,2,1.2,3.7,2,4.9c0.9,1.2,1.9,2.1,3.2,2.6C293.8,60.5,295.2,60.8,296.6,60.8z"/>
	<path class="st2" d="M327.1,65.9h-3.6V5.7h7.5v22.2c1.2-1.5,2.8-2.8,4.6-3.9c1.8-1.1,4-1.7,6.7-1.7c4.5,0,8.1,1.8,10.8,5.2
		c2.6,3.5,4,9,4,16.6c0,7.7-1.4,13.5-4.1,17.1c-2.8,3.7-6.7,5.5-11.8,5.5c-1.6,0-3.1-0.2-4.5-0.6c-1.4-0.4-2.5-0.8-3.2-1.1l-4.2-5.5
		L327.1,65.9z M330.9,57.7c1.3,1.1,2.6,1.9,3.9,2.5c1.3,0.6,2.8,0.9,4.6,0.9c1.7,0,3.1-0.2,4.4-0.7c1.2-0.5,2.2-1.3,3.1-2.5
		c0.8-1.2,1.4-2.8,1.8-4.8c0.4-2,0.6-4.5,0.6-7.5v-2.4c0-3.1-0.2-5.6-0.6-7.5c-0.4-1.9-1-3.4-1.8-4.4c-0.8-1-1.7-1.7-2.8-2.1
		c-1.1-0.4-2.3-0.5-3.6-0.5c-2.3,0-4.3,0.5-5.7,1.4c-1.5,0.9-2.7,1.8-3.6,2.7V57.7z"/>
	<path class="st2" d="M385.6,37.6c0-1.6-0.1-2.9-0.2-4c-0.2-1.1-0.5-2-1-2.7c-0.5-0.7-1.2-1.2-2.1-1.5c-0.9-0.3-2.1-0.4-3.5-0.4
		c-1,0-2,0.1-2.9,0.2c-0.9,0.1-1.9,0.3-2.8,0.5c-1,0.2-1.9,0.5-2.9,0.8c-1,0.3-2.1,0.6-3.3,1l-1.2-5.8c2.2-0.9,4.3-1.7,6.4-2.4
		c2.1-0.7,4.5-1,7.3-1c2.5,0,4.6,0.3,6.3,1c1.7,0.7,3.2,1.7,4.3,3.1c1.1,1.4,1.9,3.3,2.4,5.5c0.5,2.3,0.8,5,0.8,8.3V58
		c0,1.2,0.2,2.1,0.5,2.5c0.4,0.4,1,0.6,2,0.6h1.4l0.4,4.2c-0.4,0.3-1,0.5-1.8,0.8c-0.8,0.3-1.7,0.4-2.8,0.4c-0.7,0-1.5-0.1-2.2-0.2
		c-0.7-0.1-1.4-0.3-2-0.6l-2.4-5.4l-3,4.8c-1,0.5-2.1,1-3.3,1.3c-1.2,0.3-2.6,0.5-4,0.5c-1.7,0-3.3-0.2-4.8-0.6
		c-1.5-0.4-2.8-1.1-4-2.1c-1.1-1-2.1-2.2-2.7-3.8c-0.7-1.5-1-3.4-1-5.7c0-4.4,1.2-7.6,3.7-9.6c2.5-2,6.3-3.3,11.6-3.8l6.8-0.7V37.6z
		 M385.6,45.4l-6.3,0.7c-1.7,0.2-3.1,0.5-4.2,0.8c-1.1,0.3-2,0.8-2.7,1.4c-0.7,0.6-1.1,1.4-1.4,2.3c-0.3,0.9-0.4,2.1-0.4,3.6v0.2
		c0,1.3,0.1,2.4,0.4,3.3c0.2,0.9,0.6,1.6,1.2,2.1c0.5,0.5,1.3,0.9,2.1,1.1c0.9,0.2,2,0.3,3.3,0.3c2.2,0,4-0.4,5.1-1.1
		c1.2-0.7,2.1-1.6,2.9-2.5V45.4z"/>
	<path class="st2" d="M405.2,5.7h7.5v59.9h-7.5V5.7z"/>
</g>
<path class="st0" d="M50,52.7C50,58.9,44.5,64,37.6,64H13.2C6.4,64,0.8,58.9,0.8,52.7V30.5c0-6.2,5.6-11.3,12.4-11.3h24.4
	c6.8,0,12.4,5.1,12.4,11.3V52.7z"/>
<g>
	<path class="st2" d="M19.1,47.3c-4.7-4.2-10.2-7.1-15.9-8.7v13c0,5.6,5,10.2,11.2,10.2h14.3C26.9,56.6,23.7,51.6,19.1,47.3z"/>
	<path class="st2" d="M35,61.9h1.4c1.8,0,3.4-0.4,4.9-1.1c0-8.3-3.7-17-11-23.7c-7.4-6.7-16.9-10.1-26-10.1
		c-0.7,1.3-1.2,2.8-1.2,4.4v1.3c7.3,1.7,14.4,5.2,20.3,10.6C29.3,48.7,33.2,55.2,35,61.9z"/>
	<path class="st2" d="M34.6,33.2c6.9,6.3,11,14,12.3,21.9c0.4-1.1,0.7-2.2,0.7-3.4V31.5c0-5.6-5-10.2-11.2-10.2H14.4
		c-1.3,0-2.6,0.2-3.7,0.6C19.3,23.2,27.8,26.9,34.6,33.2z"/>
</g>
<path class="st0" d="M49.7,24.8c3.3-0.5,8-0.6,10.7,1.6c1.2,1,3.1,3.1,2.6,4.7c-0.5,1.5-2.5,2.8-4.2,2.3c-2.9-0.8-2.1-4-3.2-5.9
	C53.9,24.7,49.7,24.8,49.7,24.8z"/>
<path class="st0" d="M43.9,19.5c0.5-3,0.7-7.3-1.7-9.8c-1.1-1.1-3.4-2.9-5.2-2.4c-1.7,0.4-3.1,2.2-2.6,3.8c0.9,2.7,4.4,1.9,6.4,2.9
	C44.1,15.8,43.9,19.5,43.9,19.5z"/>
<path class="st0" d="M3.4,58.5c0,0-3.9,5.4-3.2,6c0.9,0.8,7.1-2.8,7.1-2.8L3.4,58.5z"/>
</svg>
